<?xml version="1.0" standalone="no"?>
<!DOCTYPE svg PUBLIC "-//W3C//DTD SVG 20010904//EN"
 "http://www.w3.org/TR/2001/REC-SVG-20010904/DTD/svg10.dtd">
<svg version="1.0" xmlns="http://www.w3.org/2000/svg"
 width="500.000000pt" height="500.000000pt" viewBox="0 0 500.000000 500.000000"
 preserveAspectRatio="xMidYMid meet">
<metadata>
Created by potrace 1.11, written by Peter Selinger 2001-2013
</metadata>
<g transform="translate(0.000000,500.000000) scale(0.100000,-0.100000)"
fill="#000000" stroke="none">
<path d="M0 2500 l0 -2500 2500 0 2500 0 0 2500 0 2500 -2500 0 -2500 0 0
-2500z m1890 1291 c207 -47 399 -139 555 -266 l30 -24 50 40 c237 190 559 291
870 275 334 -17 612 -142 851 -380 193 -193 301 -394 360 -667 26 -118 26
-380 0 -498 -59 -273 -167 -474 -360 -667 -193 -193 -394 -301 -667 -360 -118
-26 -380 -26 -498 0 -216 46 -415 140 -576 271 l-30 24 -50 -40 c-237 -190
-559 -291 -870 -275 -334 17 -612 142 -851 380 -193 193 -301 394 -360 667
-14 62 -18 127 -18 249 0 176 12 261 60 408 113 346 385 642 724 787 93 40
240 81 341 95 99 14 340 4 439 -19z"/>
<path d="M1455 3416 c-193 -38 -343 -115 -484 -250 -129 -125 -215 -270 -263
-446 -33 -122 -33 -338 0 -460 29 -106 88 -233 146 -313 51 -72 170 -189 239
-236 72 -49 201 -107 297 -133 122 -32 337 -33 460 0 107 29 267 107 343 167
l58 46 -31 52 c-76 126 -133 273 -166 428 -26 118 -26 380 0 498 27 125 61
224 117 336 27 55 49 103 49 106 0 13 -125 92 -203 129 -45 21 -118 48 -162
60 -103 28 -300 35 -400 16z"/>
<path d="M3165 3416 c-88 -17 -181 -49 -259 -88 -64 -32 -176 -107 -176 -117
0 -3 22 -51 49 -106 56 -112 90 -211 117 -336 26 -118 26 -380 0 -498 -33
-155 -90 -302 -166 -428 l-31 -52 58 -46 c76 -60 236 -138 343 -167 123 -33
338 -32 460 0 96 26 225 84 297 133 69 47 188 164 239 236 58 80 117 207 146
313 33 122 33 338 0 460 -48 176 -134 321 -263 446 -178 170 -372 252 -619
260 -81 2 -150 -1 -195 -10z"/>
<path d="M2452 2824 c-47 -128 -56 -183 -56 -334 0 -151 9 -206 56 -334 l22
-59 18 43 c46 109 63 199 63 350 0 151 -17 241 -63 350 l-18 43 -22 -59z"/>
</g>
</svg>
